<?xml version="1.0" encoding="utf-8"?>
<!-- Generator: Adobe Illustrator 15.0.0, SVG Export Plug-In . SVG Version: 6.00 Build 0)  -->
<!DOCTYPE svg PUBLIC "-//W3C//DTD SVG 1.1//EN" "http://www.w3.org/Graphics/SVG/1.1/DTD/svg11.dtd">
<svg version="1.1" id="Layer_1" xmlns="http://www.w3.org/2000/svg" xmlns:xlink="http://www.w3.org/1999/xlink" x="0px" y="0px"
	 width="600px" height="600px" viewBox="0 0 600 600" enable-background="new 0 0 600 600" xml:space="preserve">
<rect x="2069.481" y="35.304" fill="#E10E49" width="679.504" height="528.825"/>
<path fill="#FFFFFF" d="M2512.913,159.935h-216.236c-28.125,0-50.918,23.119-50.918,51.604v124.008
	c0,28.471,22.793,51.576,50.918,51.576h39.84l0.283,67.666l93.121-67.666h82.992c28.082,0,50.904-23.105,50.904-51.576V211.539
	C2563.817,183.054,2540.995,159.935,2512.913,159.935z M2518.272,319.562h-158.51V296.81h158.51V319.562z M2518.64,273.705h-159.344
	V250.96h159.344V273.705z"/>
<g>
	<g id="XMLID_9_">
		<g>
			<g id="XMLID_10_">
				<g>
					<path fill="#9A9B9C" d="M426.776,446.57l-70.246-70.236c-19.216,12.6-42.208,19.99-67.041,19.99
						c-67.655,0-122.406-54.889-122.406-122.549c0-67.531,54.723-122.406,122.406-122.406c67.525,0,122.408,54.875,122.408,122.406
						c0,23.645-6.676,45.645-18.172,64.292l70.717,70.703c3.752,3.652,0.602,12.727-6.901,20.23l-10.522,10.533
						C439.483,447.051,430.401,450.18,426.776,446.57z M371.194,273.775c0-45.148-36.562-81.717-81.726-81.717
						c-45.173,0-81.827,36.568-81.827,81.717c0,45.165,36.654,81.86,81.827,81.86C334.632,355.635,371.194,318.939,371.194,273.775z
						"/>
				</g>
			</g>
		</g>
	</g>
</g>
<g>
	<g>
		<path fill="#9A9B9C" d="M1718.026,276.58v-0.326c-0.086,0.1-0.143,0.227-0.213,0.326H1718.026z"/>
		<path fill="#9A9B9C" d="M1708.71,132.837c-85.682,0-155.152,69.441-155.152,155.139c0,85.711,69.471,155.168,155.152,155.168
			c85.697,0,155.154-69.457,155.154-155.168C1863.864,202.279,1794.407,132.837,1708.71,132.837z M1666.351,362.119h-33.213V262.082
			h33.213V362.119z M1649.729,248.406h-0.213c-11.17,0-18.361-7.688-18.361-17.273c0-9.811,7.461-17.328,18.787-17.328
			c11.426,0,18.391,7.518,18.588,17.328C1668.53,240.718,1661.368,248.406,1649.729,248.406z M1786.308,362.119h-33.312v-53.516
			c0-13.463-4.785-22.637-16.791-22.637c-9.23,0-14.695,6.215-17.115,12.189c-0.879,2.123-1.062,5.096-1.062,8.098v55.865h-33.256
			c0,0,0.41-90.637,0-100.038h33.256v14.172c4.402-6.852,12.289-16.508,30.014-16.508c21.832,0,38.268,14.285,38.268,45.022V362.119
			z"/>
	</g>
</g>
<g>
	<g>
		<path fill="#9A9B9C" d="M-522.273,303.479c0,15.318,12.529,27.848,27.846,27.848h229.841c15.315,0,27.845-12.529,27.845-27.848
			v-6.959c0-15.318-12.529-27.848-27.845-27.848h-229.841c-15.316,0-27.846,12.529-27.846,27.848V303.479z"/>
	</g>
	<g>
		<g>
			<path fill="#9A9B9C" d="M-522.273,199.01c0,15.318,12.529,27.861,27.846,27.861h229.841c15.315,0,27.845-12.543,27.845-27.861
				v-13.932c0-15.311-12.529-27.84-27.845-27.84h-229.841c-15.316,0-27.846,12.529-27.846,27.84V199.01z"/>
		</g>
		<g>
			<path fill="#9A9B9C" d="M-522.273,414.914c0,15.318,12.529,27.848,27.846,27.848h229.841c15.315,0,27.845-12.529,27.845-27.848
				v-20.883c0-15.334-12.529-27.877-27.845-27.877h-229.841c-15.316,0-27.846,12.543-27.846,27.877V414.914z"/>
		</g>
	</g>
</g>
<path fill-rule="evenodd" clip-rule="evenodd" fill="#9A9B9C" d="M1200.169,237.123c-0.17-7.703-1.861-40.816-17.91-46.947
	c-32.994-12.629-114.521-22.695-169.622-22.695c-55.187,0-136.649,10.066-169.644,22.695c-16.062,6.131-17.768,39.287-17.902,46.988
	c-0.297,2.238-0.255,4.432,0.1,6.4l3.129,15.729c1.684,8.637,9.994,14.229,18.566,12.559l72.36-14.002
	c8.622-1.672,14.207-9.967,12.565-18.59l-3.773-19.396c6.676-0.947,13.365-1.797,20.004-2.619l-2.115,31.373
	c0,0-107.918,57.551-107.918,78.917c0,21.363,0,104.412,0,104.412h174.628h174.606c0,0,0-83.756,0-104.412
	c0-20.686-107.896-78.917-107.896-78.917l-2.15-31.373c6.652,0.822,13.293,1.672,19.969,2.619l-3.725,19.396
	c-1.705,8.623,3.951,16.918,12.516,18.59l72.346,14.002c8.637,1.67,16.969-3.922,18.59-12.559l3.207-15.729
	C1200.438,241.595,1200.458,239.373,1200.169,237.123z M1012.637,212.431c6.71,0,32.399,1.174,40.03,2.152
	c0-0.129-2.491,31.033-2.541,30.947h-37.489h-37.489l-2.301-30.947C987.351,213.224,1000.992,212.431,1012.637,212.431z
	 M1012.637,389.119c-27.862,0-50.429-20.982-50.429-46.92c0-25.865,22.566-46.889,50.429-46.889
	c27.854,0,50.423,21.024,50.423,46.889C1063.06,368.137,1040.491,389.119,1012.637,389.119z"/>
<g>
	<g>
		<path fill="#E10E49" d="M-1157.939,211.105c0,19.877-16.125,35.988-35.996,35.988c-19.881,0-35.992-16.111-35.992-35.988
			c0-19.863,16.111-35.975,35.992-35.975C-1174.064,175.13-1157.939,191.242-1157.939,211.105"/>
		<path fill="#9A9B9C" d="M-1032.106,368.105c-34.159,0-61.862-27.686-61.862-61.833c0-34.148,27.703-61.841,61.862-61.841
			c34.163,0,61.862,27.693,61.862,61.841C-970.244,340.42-997.943,368.105-1032.106,368.105 M-810.1,301.119
			c-4.47-3.214-9.341-5.905-14.353-8.049c-9.23-3.943-18.766-7.191-28.021-11.121c-9.393-3.949-23.969-7.971-23.969-21.355
			c0-11.857,12.278-15.723,23.035-16.147c8.976,0.134,17.074,1.728,26.432,4.332c0.178,0.05,0.336,0.099,0.514,0.142
			c0.042,0.008,0.07,0,0.135,0.014c0.955,0.256,1.961,0.426,2.998,0.426c5.393,0,9.902-3.604,11.328-8.523l0.004-0.014
			c0,0,0.008-0.043,0.032-0.107c0.453-1.543,5.575-19.678,5.575-19.678c-17.4-6.123-30.209-9.521-44.859-9.89v-0.015
			c-33.182,0.58-59.31,18.349-59.31,51.902c0,15.743,7.837,30.198,21.165,38.643c11.875,7.561,25.615,11.914,38.57,17.273
			c10.104,4.184,27.494,8.133,29.49,22.701c1.387,10.016-7.434,18.547-16.215,22.156c-6.76,2.797-14.497,4.148-21.799,4.291
			c-47.078-0.256-77.566-27.828-77.566-61.827V151.048h-21.354c-0.061,0-0.131-0.015-0.191-0.015c-6.52,0-11.807,5.28-11.807,11.808
			c0,0.113,0.01,0.219,0.021,0.34v70.795c-16.646-14.229-38.243-22.85-61.862-22.85c-52.567,0-95.182,42.6-95.182,95.146
			c0,0.05,0,0.093,0,0.142l0,0v31.225c0.071,9.562-3.026,17.611-7.433,22.793c-2.202,2.627-4.715,4.566-7.486,5.896
			c-2.796,1.332-5.875,2.096-9.605,2.096c-3.709,0-6.813-0.764-9.592-2.096c-4.152-1.988-7.766-5.393-10.526-10.291
			c-2.732-4.885-4.467-11.229-4.467-18.398l-0.018-64.793c-0.004-6.512-5.292-11.779-11.808-11.779h-21.24v76.573
			c0.007,16.557,5.252,32.174,15.29,44.107c5.005,5.947,11.255,10.938,18.497,14.393c7.199,3.461,15.368,5.357,23.863,5.336
			c8.501,0.021,16.678-1.875,23.877-5.336c10.862-5.203,19.431-13.783,25.108-23.99c0.269-0.439,0.485-0.936,0.736-1.402
			c17.396,18.852,42.31,30.68,69.984,30.68c32.974,0,62.028-16.764,79.112-42.232c18.441,25.002,50.709,41.623,92.312,42.219
			c0.113,0-0.131,0,0-0.016c3.605-0.057,7.429-0.268,10.9-0.693c17.439-2.123,35.211-7.688,47.475-21.002
			C-780.542,356.037-783.947,319.92-810.1,301.119"/>
	</g>
</g>
</svg>
